<svg width="87" height="84" viewBox="0 0 87 84" fill="none" xmlns="http://www.w3.org/2000/svg">
<path d="M0 26V51.375C0 59.3826 6.49237 65.875 14.5 65.875H40.5601C40.1251 64.0226 39.8714 62.0651 39.8714 59.9916V47.1338C39.8714 40.1049 44.3773 33.8626 51.0509 31.6514L67.0589 26.0036H0V26ZM19.9375 40.5C22.939 40.5 25.375 42.936 25.375 45.9375C25.375 48.939 22.939 51.375 19.9375 51.375C16.936 51.375 14.5 48.939 14.5 45.9375C14.5 42.936 16.936 40.5 19.9375 40.5ZM87 15.125V18.75H0V15.125C0 7.11737 6.49237 0.625 14.5 0.625H72.5C80.5076 0.625 87 7.11737 87 15.125ZM67.0661 84C65.7611 84 64.7171 83.2533 64.7171 83.2533C60.5919 81.1906 47.125 73.4512 47.125 60.5172V48.9644C47.125 44.27 50.1193 40.123 54.578 38.6404L63.6405 35.6353C65.8481 34.9066 68.2805 34.9066 70.4845 35.6353L79.5506 38.6404C84.0058 40.1194 87.0036 44.2664 87.0036 48.9644V60.5172C87.0036 75.1296 73.3627 81.7525 69.1795 83.4345C69.1795 83.4345 68.3748 84 67.0698 84H67.0661Z" fill="#292E3C"/>
</svg>
