<svg width="87" height="87" viewBox="0 0 87 87" fill="none" xmlns="http://www.w3.org/2000/svg">
<path d="M45.0936 0.300199C40.058 -0.0313792 34.8065 -0.0307326 29.7813 0.300199C13.8819 1.34727 1.23686 14.0684 0.196653 30.0141C0.00378486 32.9711 0.00378486 36.0291 0.196653 38.9859C0.585138 44.9409 3.19985 50.2873 6.07599 54.5936C6.79237 55.9957 6.46112 58.2336 4.87464 61.2119L4.79259 61.3659C4.26209 62.3609 3.71961 63.3786 3.40319 64.2561C3.06511 65.1937 2.6729 66.7963 3.61768 68.3923C4.47743 69.8445 5.84444 70.3594 6.88929 70.5598C7.74402 70.7235 8.78128 70.7482 9.7092 70.77L9.87903 70.7741C14.8554 70.8941 18.3861 69.467 21.1851 67.4223C21.6146 67.1083 21.9315 66.8775 22.1781 66.7041C22.5519 66.8464 23.0455 67.0472 23.7324 67.3273C25.6395 68.1053 27.7982 68.5693 29.7813 68.6999C34.8065 69.0309 40.058 69.0317 45.0936 68.6999C60.9931 67.6531 73.6378 54.9319 74.6782 38.9859C74.8709 36.0291 74.8709 32.9711 74.6782 30.0141C73.6378 14.0684 60.9931 1.34727 45.0936 0.300199Z" fill="#292E3C"/>
<g filter="url(#filter0_n_3013_2507)">
<path fill-rule="evenodd" clip-rule="evenodd" d="M25.3125 46.5309C23.6384 46.5309 22.2812 45.1737 22.2812 43.4997C22.2812 41.8256 23.6384 40.4684 25.3125 40.4684H49.5625C51.2366 40.4684 52.5937 41.8256 52.5937 43.4997C52.5937 45.1737 51.2366 46.5309 49.5625 46.5309H25.3125ZM25.3125 30.3643C23.6384 30.3643 22.2812 29.0071 22.2812 27.333C22.2812 25.6589 23.6384 24.3018 25.3125 24.3018H37.4375C39.1116 24.3018 40.4687 25.6589 40.4687 27.333C40.4687 29.0071 39.1116 30.3643 37.4375 30.3643H25.3125Z" fill="#F6F8FB"/>
</g>
<path d="M80.7298 39.3856C79.4931 58.3443 64.452 73.5058 45.4942 74.7542C40.1931 75.1034 34.6752 75.1026 29.3851 74.7542C27.205 74.6108 26.115 74.5388 25.7383 74.8658C25.4371 75.1273 25.2886 75.4983 25.326 75.8952C25.3728 76.3919 26.0917 76.9929 27.5296 78.1945C32.1632 82.0672 37.9258 84.5783 44.3686 85.0011C49.1151 85.3127 54.0653 85.3119 58.8022 85.0011C60.6848 84.8778 62.7347 84.4393 64.5478 83.7021L64.9407 83.5428C65.3 83.3969 65.4794 83.3242 65.6754 83.3117C65.8209 83.3024 65.9814 83.3222 66.1204 83.3662C66.3076 83.4256 66.4652 83.5408 66.7812 83.7704C69.4455 85.7092 72.8049 87.0591 77.5268 86.9455L77.6905 86.9419C78.5595 86.9217 79.5493 86.8982 80.3681 86.7418C81.3741 86.5498 82.7191 86.0507 83.5667 84.6244C84.5015 83.0514 84.1087 81.4747 83.7841 80.5783C83.4814 79.7416 82.9645 78.7761 82.4682 77.8485L82.3877 77.6986C80.9012 74.9187 80.6349 72.9084 81.2536 71.6874C83.9672 67.6385 86.4448 62.5961 86.8134 56.9685C86.9956 54.1874 86.9956 51.3118 86.8134 48.5311C86.5793 44.955 85.7245 41.5515 84.3556 38.4273C83.42 36.2925 82.9523 35.2254 82.2103 35.1824C82.0325 35.1721 81.8255 35.2084 81.6618 35.2788C80.9788 35.5723 80.8959 36.8434 80.7298 39.3856Z" fill="#292E3C"/>
<defs>
<filter id="filter0_n_3013_2507" x="22.2812" y="24.3018" width="30.3125" height="22.229" filterUnits="userSpaceOnUse" color-interpolation-filters="sRGB">
<feFlood flood-opacity="0" result="BackgroundImageFix"/>
<feBlend mode="normal" in="SourceGraphic" in2="BackgroundImageFix" result="shape"/>
<feTurbulence type="fractalNoise" baseFrequency="39.805820465087891 39.805820465087891" stitchTiles="stitch" numOctaves="3" result="noise" seed="3932" />
<feColorMatrix in="noise" type="luminanceToAlpha" result="alphaNoise" />
<feComponentTransfer in="alphaNoise" result="coloredNoise1">
<feFuncA type="discrete" tableValues="0 0 0 0 0 0 0 0 0 0 0 0 0 0 0 0 0 0 0 0 0 0 0 0 1 1 0 0 0 0 0 0 0 0 0 0 0 0 0 0 0 0 0 0 0 0 0 0 0 0 0 0 0 0 0 0 0 0 0 0 0 0 0 0 0 0 0 0 0 0 0 0 0 0 0 0 0 0 0 0 0 0 0 0 0 0 0 0 0 0 0 0 0 0 0 0 0 0 0 0 "/>
</feComponentTransfer>
<feComposite operator="in" in2="shape" in="coloredNoise1" result="noise1Clipped" />
<feFlood flood-color="rgba(0, 0, 0, 0.25)" result="color1Flood" />
<feComposite operator="in" in2="noise1Clipped" in="color1Flood" result="color1" />
<feMerge result="effect1_noise_3013_2507">
<feMergeNode in="shape" />
<feMergeNode in="color1" />
</feMerge>
</filter>
</defs>
</svg>
