<svg width="89" height="81" viewBox="0 0 89 81" fill="none" xmlns="http://www.w3.org/2000/svg">
<path fill-rule="evenodd" clip-rule="evenodd" d="M36.1211 0.0834994H52.8793C60.2488 0.0833782 66.1893 0.0832973 70.861 0.711453C75.7119 1.36358 79.796 2.75872 83.0394 6.0024C86.2832 9.24604 87.6784 13.3301 88.3303 18.1807C88.9588 22.8528 88.9584 28.7931 88.9584 36.1631V36.7539C88.9584 44.1239 88.9588 50.0644 88.3303 54.7361C87.6784 59.5869 86.2832 63.671 83.0394 66.9145C82.3414 67.6129 81.5909 68.2381 80.7833 68.7943C78.9448 70.0601 76.4284 69.5961 75.1622 67.7576C73.8963 65.919 74.3607 63.4023 76.1989 62.1364C76.5982 61.8616 76.9704 61.5524 77.3237 61.1987C78.815 59.7074 79.7875 57.6134 80.3193 53.659C80.8666 49.5887 80.8751 44.1938 80.8751 36.4585C80.8751 28.7232 80.8666 23.3283 80.3193 19.2578C79.7875 15.3036 78.815 13.2096 77.3237 11.7182C75.8323 10.2267 73.7383 9.25432 69.7839 8.72268C65.7136 8.17544 60.3188 8.16683 52.5834 8.16683H36.4168C28.6814 8.16683 23.2866 8.17544 19.2161 8.72268C15.2618 9.25432 13.1679 10.2267 11.6764 11.7182C10.185 13.2096 9.21258 15.3036 8.68093 19.2578C8.13369 23.3283 8.12508 28.7232 8.12508 36.4585C8.12508 44.1938 8.13369 49.5887 8.68093 53.659C9.21258 57.6134 10.185 59.7074 11.6764 61.1987C12.0298 61.5524 12.4021 61.8616 12.8012 62.1364C14.6396 63.4023 15.1038 65.919 13.8379 67.7576C12.5719 69.5961 10.0553 70.0601 8.21687 68.7943C7.40922 68.2381 6.65877 67.6129 5.96065 66.9145C2.71697 63.671 1.32183 59.5869 0.669705 54.7361C0.0415529 50.0644 0.0416418 44.1239 0.0417509 36.7543V36.1626C0.0416418 28.793 0.0415529 22.8527 0.669705 18.1807C1.32183 13.3301 2.71697 9.24604 5.96065 6.0024C9.20429 2.75872 13.2884 1.36358 18.139 0.711453C22.811 0.0832973 28.7512 0.0833782 36.1211 0.0834994Z" fill="#292E3C"/>
<path d="M29.2807 59.5115C25.3099 62.2776 14.8986 67.9262 21.2397 74.9947C24.3374 78.4475 27.7873 80.9169 32.1247 80.9169H56.8751C61.2126 80.9169 64.6626 78.4475 67.7601 74.9947C74.1015 67.9262 63.6902 62.2776 59.7192 59.5115C50.4076 53.0242 38.5922 53.0242 29.2807 59.5115Z" fill="#292E3C"/>
<path d="M57.6353 37.4689C57.6353 44.7233 51.7543 50.6043 44.4999 50.6043C37.2455 50.6043 31.3645 44.7233 31.3645 37.4689C31.3645 30.2144 37.2455 24.3335 44.4999 24.3335C51.7543 24.3335 57.6353 30.2144 57.6353 37.4689Z" fill="#292E3C"/>
</svg>
