<svg width="90" height="68" viewBox="0 0 90 68" fill="none" xmlns="http://www.w3.org/2000/svg">
<path d="M75 0.25H15C6.71625 0.25 0 6.96625 0 15.25V52.75C0 61.0338 6.71625 67.75 15 67.75H75C83.2838 67.75 90 61.0338 90 52.75V15.25C90 6.96625 83.2838 0.25 75 0.25ZM24.6562 49C23.1488 49 21.8137 48.025 21.3525 46.5888L17.25 33.7938V45.9963C17.25 47.6538 15.9075 48.9963 14.25 48.9963C12.5925 48.9963 11.25 47.6538 11.25 45.9963V22.48C11.25 20.5563 12.8138 19.0037 14.7338 19.015C16.2337 19.0225 17.5575 19.9937 18.015 21.4225L22.1213 34.2325V21.9963C22.1213 20.3388 23.4637 18.9963 25.1213 18.9963C26.7787 18.9963 28.1213 20.3388 28.1213 21.9963V45.5275C28.1213 47.4438 26.5688 48.9963 24.6525 48.9963L24.6562 49ZM45.75 25H41.6213V31.7537H45.75C47.4075 31.7537 48.75 33.0962 48.75 34.7537C48.75 36.4113 47.4075 37.7538 45.75 37.7538H41.6213V43.0037H45.75C47.4075 43.0037 48.75 44.3462 48.75 46.0037C48.75 47.6613 47.4075 49.0037 45.75 49.0037H38.625C36.9675 49.0037 35.625 47.6613 35.625 46.0037V22.0037C35.625 20.3462 36.9675 19.0038 38.625 19.0038H45.75C47.4075 19.0038 48.75 20.3462 48.75 22.0037C48.75 23.6612 47.4075 25 45.75 25ZM77.9925 45.25C77.8425 47.8937 76.3463 49 74.5538 49C73.3613 49 72.255 48.0925 71.625 46.6L67.575 37L63.525 46.6C62.895 48.0925 61.7888 49 60.5963 49C58.8 49 57.3037 47.8937 57.1575 45.25L55.605 22.2138C55.4888 20.4775 56.8687 19.0075 58.6087 19.0113C60.1838 19.0188 61.485 20.2375 61.59 21.8087L62.4 33.8312L64.8113 28.12C65.8425 25.675 69.3075 25.675 70.3388 28.12L72.75 33.8312L73.56 21.8313C73.665 20.2675 74.955 19.0487 76.5225 19.0338C78.27 19.015 79.665 20.4925 79.545 22.2362L77.9963 45.2537L77.9925 45.25Z" fill="#292E3C"/>
</svg>
