<svg width="18" height="12" viewBox="0 0 18 12" fill="none" xmlns="http://www.w3.org/2000/svg">
<path fill-rule="evenodd" clip-rule="evenodd" d="M17.0073 1.30154C17.7088 1.93737 17.762 3.02153 17.1262 3.72302L11.9487 9.43537C11.5782 9.84405 11.1798 10.2435 10.7497 10.5455C10.305 10.8579 9.71734 11.1431 8.99888 11.1431C8.28042 11.1431 7.69277 10.8579 7.24808 10.5455C6.81779 10.2435 6.41939 9.84405 6.04911 9.43537L0.87162 3.72302C0.235792 3.02153 0.288935 1.93737 0.990421 1.30154C1.69191 0.665709 2.77602 0.718953 3.41185 1.42046L8.58951 7.13291C8.75905 7.31993 8.89328 7.45639 8.99888 7.55531C9.10448 7.45639 9.23871 7.31993 9.40825 7.13291L14.5858 1.42046C15.2217 0.718954 16.3058 0.665709 17.0073 1.30154Z" fill="#272B37"/>
</svg>
