<svg width="34" height="20" viewBox="0 0 34 20" fill="none" xmlns="http://www.w3.org/2000/svg">
<path fill-rule="evenodd" clip-rule="evenodd" d="M1.65276 19.0052C0.308214 17.7865 0.206159 15.7086 1.42483 14.364L11.3485 3.41539C12.0585 2.63207 12.8221 1.8665 13.6465 1.28756C14.4988 0.688903 15.6251 0.142159 17.0022 0.142159C18.3792 0.142159 19.5056 0.688904 20.3579 1.28756C21.1826 1.8665 21.9462 2.63207 22.6559 3.41539L32.5794 14.3641C33.7981 15.7086 33.6963 17.7866 32.3517 19.0052C31.0072 20.2239 28.9293 20.1218 27.7107 18.7773L17.7868 7.82844C17.4619 7.46996 17.2046 7.20842 17.0022 7.01884C16.7998 7.20842 16.5425 7.46996 16.2176 7.82844L6.29387 18.7773C5.07519 20.1218 2.99731 20.2239 1.65276 19.0052Z" fill="#272B37"/>
</svg>
