<svg width="27" height="25" viewBox="0 0 27 25" fill="none" xmlns="http://www.w3.org/2000/svg">
<path d="M26.2817 15.9771V8.99902H13.4583L24.3786 19.584C25.5295 18.7956 26.2817 17.4725 26.2817 15.9771Z" fill="#272B37" fill-opacity="0.54"/>
<path d="M1.09697 8.99912V15.9772C1.09697 18.3879 3.06354 20.3544 5.48322 20.3544H19.6568L23.7751 24.3487C23.9512 24.52 24.1786 24.6049 24.4061 24.6049C24.6423 24.6049 24.8787 24.5129 25.0566 24.3302C25.4053 23.9708 25.3964 23.3973 25.0371 23.0486L1.53741 0.255711C1.17808 -0.0925609 0.605515 -0.0841327 0.255884 0.275195C-0.0928407 0.634433 -0.0839595 1.20836 0.275369 1.55663L2.31724 3.53697C1.56152 4.32242 1.09697 5.38255 1.09697 6.55225V7.32256H6.22028L7.94886 8.99912H1.09697ZM9.55229 17.0647H5.31104C4.84894 17.0647 4.46823 16.6841 4.46823 16.2218C4.46823 15.7597 4.84885 15.379 5.31104 15.379H9.55229C10.0145 15.379 10.386 15.7597 10.386 16.2218C10.386 16.6841 10.0145 17.0647 9.55229 17.0647Z" fill="#272B37" fill-opacity="0.54"/>
<path d="M26.2817 7.32255V6.55224C26.2817 4.14161 24.3152 2.17505 21.9045 2.17505H6.42578L11.7273 7.32264L26.2817 7.32255Z" fill="#272B37" fill-opacity="0.54"/>
</svg>
