<svg width="40" height="24" viewBox="0 0 40 24" fill="none" xmlns="http://www.w3.org/2000/svg">
<path d="M2.5 3.875H37.5C37.9972 3.875 38.4743 3.67745 38.8258 3.32582C39.1775 2.9742 39.375 2.49727 39.375 2C39.375 1.50273 39.1775 1.0258 38.8258 0.674175C38.4743 0.32255 37.9972 0.125 37.5 0.125H2.5C2.00273 0.125 1.5258 0.32255 1.17417 0.674175C0.82255 1.0258 0.625 1.50273 0.625 2C0.625 2.49727 0.82255 2.9742 1.17417 3.32582C1.5258 3.67745 2.00273 3.875 2.5 3.875Z" fill="#1C273F"/>
<path d="M4 14H36C36.7956 14 37.5588 13.7893 38.1212 13.4141C38.684 13.0392 39 12.5304 39 12C39 11.4696 38.684 10.9608 38.1212 10.5859C37.5588 10.2107 36.7956 10 36 10H4C3.20436 10 2.44128 10.2107 1.87868 10.5859C1.31608 10.9608 1 11.4696 1 12C1 12.5304 1.31608 13.0392 1.87868 13.4141C2.44128 13.7893 3.20436 14 4 14Z" fill="#1C273F"/>
<path d="M37.5 20.125H2.5C2.00273 20.125 1.5258 20.3225 1.17417 20.6742C0.82255 21.0257 0.625 21.5028 0.625 22C0.625 22.4973 0.82255 22.9743 1.17417 23.3258C1.5258 23.6775 2.00273 23.875 2.5 23.875H37.5C37.9972 23.875 38.4743 23.6775 38.8258 23.3258C39.1775 22.9743 39.375 22.4973 39.375 22C39.375 21.5028 39.1775 21.0257 38.8258 20.6742C38.4743 20.3225 37.9972 20.125 37.5 20.125Z" fill="#1C273F"/>
</svg>
