<svg width="40" height="24" viewBox="0 0 40 24" fill="none" xmlns="http://www.w3.org/2000/svg">
<path d="M2.5 3.875H37.5C37.9972 3.875 38.4743 3.67745 38.8258 3.32582C39.1775 2.9742 39.375 2.49727 39.375 2C39.375 1.50273 39.1775 1.0258 38.8258 0.674175C38.4743 0.32255 37.9972 0.125 37.5 0.125H2.5C2.00273 0.125 1.5258 0.32255 1.17417 0.674175C0.82255 1.0258 0.625 1.50273 0.625 2C0.625 2.49727 0.82255 2.9742 1.17417 3.32582C1.5258 3.67745 2.00273 3.875 2.5 3.875Z" fill="#3A4755"/>
<path d="M2.5 13.875H22.5C22.9972 13.875 23.4743 13.6775 23.8258 13.3258C24.1775 12.9743 24.375 12.4973 24.375 12C24.375 11.5028 24.1775 11.0257 23.8258 10.6742C23.4743 10.3225 22.9972 10.125 22.5 10.125H2.5C2.00273 10.125 1.5258 10.3225 1.17417 10.6742C0.82255 11.0257 0.625 11.5028 0.625 12C0.625 12.4973 0.82255 12.9743 1.17417 13.3258C1.5258 13.6775 2.00273 13.875 2.5 13.875Z" fill="#3A4755"/>
<path d="M37.5 20.125H2.5C2.00273 20.125 1.5258 20.3225 1.17417 20.6742C0.82255 21.0257 0.625 21.5028 0.625 22C0.625 22.4973 0.82255 22.9743 1.17417 23.3258C1.5258 23.6775 2.00273 23.875 2.5 23.875H37.5C37.9972 23.875 38.4743 23.6775 38.8258 23.3258C39.1775 22.9743 39.375 22.4973 39.375 22C39.375 21.5028 39.1775 21.0257 38.8258 20.6742C38.4743 20.3225 37.9972 20.125 37.5 20.125Z" fill="#3A4755"/>
</svg>
