<svg width="204" height="84" viewBox="0 0 204 84" fill="none" xmlns="http://www.w3.org/2000/svg">
<g filter="url(#filter0_d_949_3306)">
<rect x="8" y="10" width="176" height="56" rx="14" fill="#040306"/>
<path d="M68.54 31L67.508 28.348H64.112L63.092 31H62L65.348 22.396H66.32L69.656 31H68.54ZM66.224 24.796C66.2 24.732 66.16 24.616 66.104 24.448C66.048 24.28 65.992 24.108 65.936 23.932C65.888 23.748 65.848 23.608 65.816 23.512C65.776 23.672 65.732 23.836 65.684 24.004C65.644 24.164 65.6 24.312 65.552 24.448C65.512 24.584 65.476 24.7 65.444 24.796L64.472 27.388H67.184L66.224 24.796ZM72.1001 31L69.6641 24.568H70.7921L72.1601 28.36C72.2241 28.536 72.2921 28.732 72.3641 28.948C72.4361 29.164 72.5001 29.372 72.5561 29.572C72.6121 29.764 72.6521 29.928 72.6761 30.064H72.7241C72.7561 29.928 72.8001 29.76 72.8561 29.56C72.9201 29.36 72.9881 29.152 73.0601 28.936C73.1401 28.72 73.2081 28.528 73.2641 28.36L74.6321 24.568H75.7601L73.3121 31H72.1001ZM79.2138 24.46C79.9978 24.46 80.5778 24.632 80.9538 24.976C81.3298 25.32 81.5178 25.868 81.5178 26.62V31H80.7498L80.5458 30.088H80.4978C80.3138 30.32 80.1218 30.516 79.9218 30.676C79.7298 30.828 79.5058 30.94 79.2498 31.012C79.0018 31.084 78.6978 31.12 78.3378 31.12C77.9538 31.12 77.6058 31.052 77.2938 30.916C76.9898 30.78 76.7498 30.572 76.5738 30.292C76.3978 30.004 76.3098 29.644 76.3098 29.212C76.3098 28.572 76.5618 28.08 77.0658 27.736C77.5698 27.384 78.3458 27.192 79.3938 27.16L80.4858 27.124V26.74C80.4858 26.204 80.3698 25.832 80.1378 25.624C79.9058 25.416 79.5778 25.312 79.1538 25.312C78.8178 25.312 78.4978 25.364 78.1938 25.468C77.8898 25.564 77.6058 25.676 77.3418 25.804L77.0178 25.012C77.2978 24.86 77.6298 24.732 78.0138 24.628C78.3978 24.516 78.7978 24.46 79.2138 24.46ZM79.5258 27.892C78.7258 27.924 78.1698 28.052 77.8578 28.276C77.5538 28.5 77.4018 28.816 77.4018 29.224C77.4018 29.584 77.5098 29.848 77.7258 30.016C77.9498 30.184 78.2338 30.268 78.5778 30.268C79.1218 30.268 79.5738 30.12 79.9338 29.824C80.2938 29.52 80.4738 29.056 80.4738 28.432V27.856L79.5258 27.892ZM84.5604 24.568V31H83.5044V24.568H84.5604ZM84.0444 22.156C84.2044 22.156 84.3444 22.212 84.4644 22.324C84.5924 22.428 84.6564 22.596 84.6564 22.828C84.6564 23.052 84.5924 23.22 84.4644 23.332C84.3444 23.444 84.2044 23.5 84.0444 23.5C83.8684 23.5 83.7204 23.444 83.6004 23.332C83.4804 23.22 83.4204 23.052 83.4204 22.828C83.4204 22.596 83.4804 22.428 83.6004 22.324C83.7204 22.212 83.8684 22.156 84.0444 22.156ZM87.6541 31H86.5981V21.88H87.6541V31ZM92.1279 24.46C92.9119 24.46 93.4919 24.632 93.8679 24.976C94.2439 25.32 94.4319 25.868 94.4319 26.62V31H93.6639L93.4599 30.088H93.4119C93.2279 30.32 93.0359 30.516 92.8359 30.676C92.6439 30.828 92.4199 30.94 92.1639 31.012C91.9159 31.084 91.6119 31.12 91.2519 31.12C90.8679 31.12 90.5199 31.052 90.2079 30.916C89.9039 30.78 89.6639 30.572 89.4879 30.292C89.3119 30.004 89.2239 29.644 89.2239 29.212C89.2239 28.572 89.4759 28.08 89.9799 27.736C90.4839 27.384 91.2599 27.192 92.3079 27.16L93.3999 27.124V26.74C93.3999 26.204 93.2839 25.832 93.0519 25.624C92.8199 25.416 92.4919 25.312 92.0679 25.312C91.7319 25.312 91.4119 25.364 91.1079 25.468C90.8039 25.564 90.5199 25.676 90.2559 25.804L89.9319 25.012C90.2119 24.86 90.5439 24.732 90.9279 24.628C91.3119 24.516 91.7119 24.46 92.1279 24.46ZM92.4399 27.892C91.6399 27.924 91.0839 28.052 90.7719 28.276C90.4679 28.5 90.3159 28.816 90.3159 29.224C90.3159 29.584 90.4239 29.848 90.6399 30.016C90.8639 30.184 91.1479 30.268 91.4919 30.268C92.0359 30.268 92.4879 30.12 92.8479 29.824C93.2079 29.52 93.3879 29.056 93.3879 28.432V27.856L92.4399 27.892ZM97.4744 24.1C97.4744 24.372 97.4664 24.628 97.4504 24.868C97.4424 25.1 97.4304 25.284 97.4144 25.42H97.4744C97.6584 25.148 97.9104 24.92 98.2304 24.736C98.5504 24.552 98.9624 24.46 99.4664 24.46C100.266 24.46 100.906 24.74 101.386 25.3C101.874 25.852 102.118 26.68 102.118 27.784C102.118 28.52 102.006 29.136 101.782 29.632C101.566 30.128 101.258 30.5 100.858 30.748C100.458 30.996 99.9944 31.12 99.4664 31.12C98.9624 31.12 98.5504 31.028 98.2304 30.844C97.9104 30.66 97.6584 30.44 97.4744 30.184H97.3904L97.1744 31H96.4184V21.88H97.4744V24.1ZM99.2864 25.336C98.8304 25.336 98.4704 25.424 98.2064 25.6C97.9424 25.768 97.7544 26.032 97.6424 26.392C97.5304 26.744 97.4744 27.196 97.4744 27.748V27.796C97.4744 28.588 97.6024 29.196 97.8584 29.62C98.1224 30.036 98.6064 30.244 99.3104 30.244C99.8864 30.244 100.314 30.032 100.594 29.608C100.882 29.184 101.026 28.572 101.026 27.772C101.026 26.964 100.882 26.356 100.594 25.948C100.314 25.54 99.8784 25.336 99.2864 25.336ZM104.857 31H103.801V21.88H104.857V31ZM109.379 24.448C109.931 24.448 110.403 24.568 110.795 24.808C111.195 25.048 111.499 25.388 111.707 25.828C111.923 26.26 112.031 26.768 112.031 27.352V27.988H107.627C107.643 28.716 107.827 29.272 108.179 29.656C108.539 30.032 109.039 30.22 109.679 30.22C110.087 30.22 110.447 30.184 110.759 30.112C111.079 30.032 111.407 29.92 111.743 29.776V30.7C111.415 30.844 111.091 30.948 110.771 31.012C110.451 31.084 110.071 31.12 109.631 31.12C109.023 31.12 108.483 30.996 108.011 30.748C107.547 30.5 107.183 30.132 106.919 29.644C106.663 29.148 106.535 28.544 106.535 27.832C106.535 27.128 106.651 26.524 106.883 26.02C107.123 25.516 107.455 25.128 107.879 24.856C108.311 24.584 108.811 24.448 109.379 24.448ZM109.367 25.312C108.863 25.312 108.463 25.476 108.167 25.804C107.879 26.124 107.707 26.572 107.651 27.148H110.927C110.927 26.78 110.871 26.46 110.759 26.188C110.647 25.916 110.475 25.704 110.243 25.552C110.019 25.392 109.727 25.312 109.367 25.312ZM122.378 27.772C122.378 28.308 122.306 28.784 122.162 29.2C122.026 29.608 121.826 29.956 121.562 30.244C121.306 30.532 120.99 30.752 120.614 30.904C120.246 31.048 119.834 31.12 119.378 31.12C118.954 31.12 118.562 31.048 118.202 30.904C117.842 30.752 117.53 30.532 117.266 30.244C117.002 29.956 116.794 29.608 116.642 29.2C116.498 28.784 116.426 28.308 116.426 27.772C116.426 27.06 116.546 26.46 116.786 25.972C117.026 25.476 117.37 25.1 117.818 24.844C118.266 24.58 118.798 24.448 119.414 24.448C119.998 24.448 120.51 24.58 120.95 24.844C121.398 25.1 121.746 25.476 121.994 25.972C122.25 26.46 122.378 27.06 122.378 27.772ZM117.518 27.772C117.518 28.276 117.582 28.716 117.71 29.092C117.846 29.46 118.054 29.744 118.334 29.944C118.614 30.144 118.97 30.244 119.402 30.244C119.834 30.244 120.19 30.144 120.47 29.944C120.75 29.744 120.954 29.46 121.082 29.092C121.218 28.716 121.286 28.276 121.286 27.772C121.286 27.26 121.218 26.824 121.082 26.464C120.946 26.104 120.738 25.828 120.458 25.636C120.186 25.436 119.83 25.336 119.39 25.336C118.734 25.336 118.258 25.552 117.962 25.984C117.666 26.416 117.518 27.012 117.518 27.772ZM127.147 24.448C127.915 24.448 128.495 24.636 128.887 25.012C129.279 25.38 129.475 25.98 129.475 26.812V31H128.431V26.884C128.431 26.364 128.315 25.976 128.083 25.72C127.851 25.464 127.487 25.336 126.991 25.336C126.279 25.336 125.787 25.536 125.515 25.936C125.243 26.336 125.107 26.912 125.107 27.664V31H124.051V24.568H124.903L125.059 25.444H125.119C125.263 25.22 125.439 25.036 125.647 24.892C125.863 24.74 126.099 24.628 126.355 24.556C126.611 24.484 126.875 24.448 127.147 24.448ZM136.734 30.256C136.894 30.256 137.058 30.244 137.226 30.22C137.394 30.188 137.53 30.156 137.634 30.124V30.928C137.522 30.984 137.362 31.028 137.154 31.06C136.946 31.1 136.746 31.12 136.554 31.12C136.218 31.12 135.906 31.064 135.618 30.952C135.338 30.832 135.11 30.628 134.934 30.34C134.758 30.052 134.67 29.648 134.67 29.128V25.384H133.758V24.88L134.682 24.46L135.102 23.092H135.726V24.568H137.586V25.384H135.726V29.104C135.726 29.496 135.818 29.788 136.002 29.98C136.194 30.164 136.438 30.256 136.734 30.256ZM139.978 24.556C139.978 24.708 139.97 24.864 139.954 25.024C139.946 25.184 139.934 25.328 139.918 25.456H139.99C140.126 25.232 140.298 25.048 140.506 24.904C140.714 24.76 140.946 24.652 141.202 24.58C141.458 24.5 141.722 24.46 141.994 24.46C142.514 24.46 142.946 24.544 143.29 24.712C143.642 24.872 143.906 25.124 144.082 25.468C144.258 25.812 144.346 26.26 144.346 26.812V31H143.302V26.884C143.302 26.364 143.186 25.976 142.954 25.72C142.722 25.464 142.358 25.336 141.862 25.336C141.382 25.336 141.006 25.428 140.734 25.612C140.462 25.788 140.266 26.052 140.146 26.404C140.034 26.748 139.978 27.172 139.978 27.676V31H138.922V21.88H139.978V24.556ZM148.824 24.448C149.376 24.448 149.848 24.568 150.24 24.808C150.64 25.048 150.944 25.388 151.152 25.828C151.368 26.26 151.476 26.768 151.476 27.352V27.988H147.072C147.088 28.716 147.272 29.272 147.624 29.656C147.984 30.032 148.484 30.22 149.124 30.22C149.532 30.22 149.892 30.184 150.204 30.112C150.524 30.032 150.852 29.92 151.188 29.776V30.7C150.86 30.844 150.536 30.948 150.216 31.012C149.896 31.084 149.516 31.12 149.076 31.12C148.468 31.12 147.928 30.996 147.456 30.748C146.992 30.5 146.628 30.132 146.364 29.644C146.108 29.148 145.98 28.544 145.98 27.832C145.98 27.128 146.096 26.524 146.328 26.02C146.568 25.516 146.9 25.128 147.324 24.856C147.756 24.584 148.256 24.448 148.824 24.448ZM148.812 25.312C148.308 25.312 147.908 25.476 147.612 25.804C147.324 26.124 147.152 26.572 147.096 27.148H150.372C150.372 26.78 150.316 26.46 150.204 26.188C150.092 25.916 149.92 25.704 149.688 25.552C149.464 25.392 149.172 25.312 148.812 25.312Z" fill="white"/>
<path d="M71.96 51L70.86 47.22H65.98L64.88 51H62L66.8 36.66H70.02L74.84 51H71.96ZM69.08 41.34C69.0267 41.1267 68.9533 40.8733 68.86 40.58C68.78 40.2733 68.7 39.96 68.62 39.64C68.5533 39.32 68.4867 39.02 68.42 38.74C68.3667 39.06 68.3 39.38 68.22 39.7C68.14 40.0067 68.06 40.3 67.98 40.58C67.9133 40.86 67.8467 41.1133 67.78 41.34L66.66 45.02H70.22L69.08 41.34ZM81.872 39.96C83.0454 39.96 83.9854 40.4333 84.692 41.38C85.412 42.3133 85.772 43.7067 85.772 45.56C85.772 46.7867 85.6054 47.82 85.272 48.66C84.9387 49.5 84.472 50.1333 83.872 50.56C83.272 50.9867 82.5787 51.2 81.792 51.2C81.2987 51.2 80.8654 51.1333 80.492 51C80.132 50.8533 79.8254 50.6733 79.572 50.46C79.3187 50.2333 79.1054 49.9933 78.932 49.74H78.792C78.832 49.98 78.8654 50.2533 78.892 50.56C78.9187 50.8533 78.932 51.1333 78.932 51.4V55.8H76.272V40.16H78.432L78.792 41.6H78.932C79.1187 41.2933 79.3387 41.02 79.592 40.78C79.8587 40.5267 80.1787 40.3267 80.552 40.18C80.9254 40.0333 81.3654 39.96 81.872 39.96ZM81.032 42C80.5254 42 80.112 42.12 79.792 42.36C79.4854 42.5867 79.2654 42.94 79.132 43.42C78.9987 43.9 78.932 44.5 78.932 45.22V45.54C78.932 46.3133 78.992 46.9667 79.112 47.5C79.2454 48.0333 79.4654 48.44 79.772 48.72C80.092 49 80.5254 49.14 81.072 49.14C81.5254 49.14 81.8987 48.9933 82.192 48.7C82.4854 48.4067 82.7054 47.9933 82.852 47.46C82.9987 46.9133 83.072 46.2667 83.072 45.52C83.072 44.4 82.8987 43.5333 82.552 42.92C82.2187 42.3067 81.712 42 81.032 42ZM93.708 39.96C94.8813 39.96 95.8213 40.4333 96.528 41.38C97.248 42.3133 97.608 43.7067 97.608 45.56C97.608 46.7867 97.4413 47.82 97.108 48.66C96.7746 49.5 96.308 50.1333 95.708 50.56C95.108 50.9867 94.4146 51.2 93.628 51.2C93.1346 51.2 92.7013 51.1333 92.328 51C91.968 50.8533 91.6613 50.6733 91.408 50.46C91.1546 50.2333 90.9413 49.9933 90.768 49.74H90.628C90.668 49.98 90.7013 50.2533 90.728 50.56C90.7546 50.8533 90.768 51.1333 90.768 51.4V55.8H88.108V40.16H90.268L90.628 41.6H90.768C90.9546 41.2933 91.1746 41.02 91.428 40.78C91.6946 40.5267 92.0146 40.3267 92.388 40.18C92.7613 40.0333 93.2013 39.96 93.708 39.96ZM92.868 42C92.3613 42 91.948 42.12 91.628 42.36C91.3213 42.5867 91.1013 42.94 90.968 43.42C90.8346 43.9 90.768 44.5 90.768 45.22V45.54C90.768 46.3133 90.828 46.9667 90.948 47.5C91.0813 48.0333 91.3013 48.44 91.608 48.72C91.928 49 92.3613 49.14 92.908 49.14C93.3613 49.14 93.7346 48.9933 94.028 48.7C94.3213 48.4067 94.5413 47.9933 94.688 47.46C94.8346 46.9133 94.908 46.2667 94.908 45.52C94.908 44.4 94.7346 43.5333 94.388 42.92C94.0546 42.3067 93.548 42 92.868 42ZM113.127 47.1C113.127 47.94 112.933 48.6667 112.547 49.28C112.173 49.8933 111.613 50.3667 110.867 50.7C110.133 51.0333 109.227 51.2 108.147 51.2C107.613 51.2 107.12 51.1667 106.667 51.1C106.213 51.0467 105.787 50.96 105.387 50.84C105 50.72 104.627 50.5733 104.267 50.4V48C104.867 48.2667 105.513 48.5133 106.207 48.74C106.913 48.9533 107.6 49.06 108.267 49.06C108.773 49.06 109.187 48.9867 109.507 48.84C109.827 48.68 110.06 48.4667 110.207 48.2C110.367 47.92 110.447 47.6 110.447 47.24C110.447 46.84 110.347 46.5 110.147 46.22C109.96 45.94 109.667 45.68 109.267 45.44C108.867 45.2 108.347 44.9533 107.707 44.7C107.253 44.5 106.82 44.2867 106.407 44.06C106.007 43.82 105.653 43.5333 105.347 43.2C105.053 42.8667 104.82 42.4733 104.647 42.02C104.487 41.5667 104.407 41.0333 104.407 40.42C104.407 39.6067 104.6 38.9067 104.987 38.32C105.373 37.7333 105.913 37.2867 106.607 36.98C107.3 36.6733 108.107 36.52 109.027 36.52C109.8 36.52 110.507 36.6 111.147 36.76C111.8 36.92 112.413 37.1467 112.987 37.44L112.147 39.5C111.6 39.2467 111.06 39.0467 110.527 38.9C110.007 38.7533 109.48 38.68 108.947 38.68C108.533 38.68 108.187 38.7533 107.907 38.9C107.627 39.0333 107.413 39.2267 107.267 39.48C107.133 39.7333 107.067 40.0267 107.067 40.36C107.067 40.7467 107.16 41.0733 107.347 41.34C107.533 41.6067 107.827 41.86 108.227 42.1C108.627 42.3267 109.147 42.5933 109.787 42.9C110.493 43.22 111.093 43.56 111.587 43.92C112.093 44.28 112.473 44.7133 112.727 45.22C112.993 45.7267 113.127 46.3533 113.127 47.1ZM119.555 49.18C119.848 49.18 120.128 49.1533 120.395 49.1C120.675 49.0333 120.935 48.96 121.175 48.88V50.76C120.895 50.88 120.555 50.98 120.155 51.06C119.755 51.1533 119.308 51.2 118.815 51.2C118.202 51.2 117.655 51.1 117.175 50.9C116.695 50.6867 116.315 50.3267 116.035 49.82C115.768 49.3133 115.635 48.6067 115.635 47.7V42.06H114.275V40.96L115.795 40.08L116.595 37.78H118.275V40.16H121.075V42.06H118.275V47.68C118.275 48.1867 118.388 48.5667 118.615 48.82C118.855 49.06 119.168 49.18 119.555 49.18ZM132.467 45.56C132.467 46.4667 132.354 47.2667 132.127 47.96C131.9 48.6533 131.567 49.2467 131.127 49.74C130.7 50.22 130.18 50.5867 129.567 50.84C128.954 51.08 128.267 51.2 127.507 51.2C126.8 51.2 126.14 51.08 125.527 50.84C124.927 50.5867 124.407 50.22 123.967 49.74C123.54 49.2467 123.207 48.6533 122.967 47.96C122.727 47.2667 122.607 46.4667 122.607 45.56C122.607 44.36 122.8 43.3467 123.187 42.52C123.587 41.68 124.16 41.0467 124.907 40.62C125.654 40.18 126.54 39.96 127.567 39.96C128.527 39.96 129.374 40.18 130.107 40.62C130.84 41.0467 131.414 41.68 131.827 42.52C132.254 43.3467 132.467 44.36 132.467 45.56ZM125.307 45.56C125.307 46.32 125.387 46.9733 125.547 47.52C125.707 48.0533 125.947 48.46 126.267 48.74C126.6 49.02 127.027 49.16 127.547 49.16C128.067 49.16 128.487 49.02 128.807 48.74C129.14 48.46 129.38 48.0533 129.527 47.52C129.687 46.9733 129.767 46.32 129.767 45.56C129.767 44.7867 129.687 44.14 129.527 43.62C129.367 43.0867 129.12 42.6867 128.787 42.42C128.467 42.14 128.047 42 127.527 42C126.74 42 126.174 42.3067 125.827 42.92C125.48 43.5333 125.307 44.4133 125.307 45.56ZM140.328 39.96C140.514 39.96 140.708 39.9667 140.908 39.98C141.108 39.9933 141.274 40.02 141.408 40.06L141.168 42.4C141.034 42.3733 140.874 42.3533 140.688 42.34C140.514 42.3133 140.328 42.3 140.128 42.3C139.794 42.3 139.468 42.3667 139.148 42.5C138.828 42.62 138.541 42.8067 138.288 43.06C138.034 43.3 137.828 43.6133 137.668 44C137.521 44.3867 137.448 44.8467 137.448 45.38V51H134.788V40.16H136.828L137.188 42.04H137.328C137.528 41.6533 137.774 41.3067 138.068 41C138.374 40.68 138.714 40.4267 139.088 40.24C139.474 40.0533 139.888 39.96 140.328 39.96ZM147.036 39.96C147.969 39.96 148.769 40.16 149.436 40.56C150.116 40.9467 150.643 41.5067 151.016 42.24C151.389 42.96 151.576 43.84 151.576 44.88V46.16H144.936C144.963 47.1467 145.203 47.9133 145.656 48.46C146.123 48.9933 146.776 49.26 147.616 49.26C148.283 49.26 148.876 49.1933 149.396 49.06C149.916 48.9133 150.456 48.7067 151.016 48.44V50.46C150.509 50.7133 149.983 50.9 149.436 51.02C148.889 51.14 148.216 51.2 147.416 51.2C146.403 51.2 145.503 51 144.716 50.6C143.943 50.1867 143.336 49.5667 142.896 48.74C142.456 47.9133 142.236 46.8867 142.236 45.66C142.236 44.42 142.436 43.38 142.836 42.54C143.236 41.6867 143.796 41.0467 144.516 40.62C145.249 40.18 146.089 39.96 147.036 39.96ZM147.076 41.82C146.476 41.82 145.989 42.04 145.616 42.48C145.256 42.9067 145.043 43.5467 144.976 44.4H149.056C149.056 43.8933 148.983 43.4467 148.836 43.06C148.689 42.6733 148.469 42.3733 148.176 42.16C147.896 41.9333 147.529 41.82 147.076 41.82Z" fill="white"/>
<g clip-path="url(#clip0_949_3306)">
<path d="M49.0455 30.9542C48.8317 31.1252 45.0577 33.3178 45.0577 38.1932C45.0577 43.8324 49.86 45.8274 50.0037 45.8768C49.9816 45.9984 49.2408 48.609 47.4717 51.269C45.8944 53.6098 44.2469 55.9468 41.7408 55.9468C39.2346 55.9468 38.5897 54.4458 35.6966 54.4458C32.8772 54.4458 31.8747 55.9962 29.5823 55.9962C27.2899 55.9962 25.6904 53.8302 23.8514 51.1702C21.7211 48.0466 20 43.194 20 38.5884C20 31.2012 24.6585 27.2834 29.2432 27.2834C31.6794 27.2834 33.7101 28.9326 35.2396 28.9326C36.6953 28.9326 38.9656 27.1846 41.7371 27.1846C42.7875 27.1846 46.5614 27.2834 49.0455 30.9542ZM40.4214 24.0572C41.5676 22.655 42.3784 20.7094 42.3784 18.7638C42.3784 18.494 42.3563 18.2204 42.3084 18C40.4435 18.0722 38.2248 19.2806 36.887 20.8804C35.8366 22.1116 34.8563 24.0572 34.8563 26.0294C34.8563 26.3258 34.9042 26.6222 34.9263 26.7172C35.0442 26.74 35.2359 26.7666 35.4275 26.7666C37.1007 26.7666 39.2052 25.6114 40.4214 24.0572Z" fill="white"/>
</g>
</g>
<defs>
<filter id="filter0_d_949_3306" x="0.9" y="0.9" width="202.2" height="82.2" filterUnits="userSpaceOnUse" color-interpolation-filters="sRGB">
<feFlood flood-opacity="0" result="BackgroundImageFix"/>
<feColorMatrix in="SourceAlpha" type="matrix" values="0 0 0 0 0 0 0 0 0 0 0 0 0 0 0 0 0 0 127 0" result="hardAlpha"/>
<feOffset dx="6" dy="4"/>
<feGaussianBlur stdDeviation="6.55"/>
<feComposite in2="hardAlpha" operator="out"/>
<feColorMatrix type="matrix" values="0 0 0 0 0 0 0 0 0 0 0 0 0 0 0 0 0 0 0.25 0"/>
<feBlend mode="normal" in2="BackgroundImageFix" result="effect1_dropShadow_949_3306"/>
<feBlend mode="normal" in="SourceGraphic" in2="effect1_dropShadow_949_3306" result="shape"/>
</filter>
<clipPath id="clip0_949_3306">
<rect width="30" height="38" fill="white" transform="translate(20 18)"/>
</clipPath>
</defs>
</svg>
