<svg width="145" height="42" viewBox="0 0 145 42" fill="none" xmlns="http://www.w3.org/2000/svg">
<path d="M135.18 41.2615C132.489 41.2615 130.172 40.7591 128.227 39.7544C126.283 38.7497 124.776 37.3236 123.706 35.4762C122.669 33.6288 122.15 31.441 122.15 28.913C122.15 26.4498 122.653 24.2945 123.657 22.447C124.695 20.5996 126.105 19.1573 127.887 18.1202C129.702 17.0506 131.76 16.5159 134.061 16.5159C135.747 16.5159 137.254 16.7914 138.583 17.3423C139.944 17.8933 141.094 18.6874 142.034 19.7245C143.007 20.7617 143.736 22.0257 144.222 23.5166C144.741 24.9751 145 26.628 145 28.4755C145 29.0588 144.789 29.5126 144.368 29.8367C143.979 30.1284 143.412 30.2743 142.666 30.2743H127.061V26.7739H140.722L139.944 27.5031C139.944 26.0122 139.717 24.7644 139.263 23.7597C138.842 22.7549 138.21 21.9933 137.367 21.4747C136.557 20.9237 135.536 20.6482 134.304 20.6482C132.943 20.6482 131.776 20.9724 130.804 21.6206C129.864 22.2364 129.135 23.1277 128.616 24.2945C128.13 25.4288 127.887 26.7901 127.887 28.3782V28.7185C127.887 31.3762 128.503 33.3695 129.735 34.6983C130.999 35.9948 132.846 36.643 135.277 36.643C136.119 36.643 137.059 36.5457 138.096 36.3513C139.166 36.1244 140.171 35.7517 141.111 35.2331C141.791 34.8442 142.391 34.6821 142.91 34.7469C143.428 34.7794 143.833 34.9576 144.125 35.2817C144.449 35.6058 144.643 36.011 144.708 36.4971C144.773 36.9509 144.676 37.4208 144.417 37.907C144.19 38.3932 143.785 38.8145 143.201 39.171C142.067 39.884 140.754 40.4188 139.263 40.7753C137.805 41.0995 136.444 41.2615 135.18 41.2615Z" fill="url(#paint0_linear_949_3287)"/>
<path d="M108.83 41.2615C106.14 41.2615 103.822 40.7591 101.878 39.7544C99.9332 38.7497 98.4261 37.3236 97.3565 35.4762C96.3194 33.6288 95.8008 31.441 95.8008 28.913C95.8008 26.4498 96.3031 24.2945 97.3079 22.447C98.345 20.5996 99.7549 19.1573 101.537 18.1202C103.352 17.0506 105.411 16.5159 107.712 16.5159C109.397 16.5159 110.904 16.7914 112.233 17.3423C113.594 17.8933 114.745 18.6874 115.685 19.7245C116.657 20.7617 117.386 22.0257 117.873 23.5166C118.391 24.9751 118.65 26.628 118.65 28.4755C118.65 29.0588 118.44 29.5126 118.018 29.8367C117.629 30.1284 117.062 30.2743 116.317 30.2743H100.711V26.7739H114.372L113.594 27.5031C113.594 26.0122 113.367 24.7644 112.914 23.7597C112.492 22.7549 111.86 21.9933 111.018 21.4747C110.207 20.9237 109.186 20.6482 107.955 20.6482C106.594 20.6482 105.427 20.9724 104.454 21.6206C103.515 22.2364 102.785 23.1277 102.267 24.2945C101.781 25.4288 101.537 26.7901 101.537 28.3782V28.7185C101.537 31.3762 102.153 33.3695 103.385 34.6983C104.649 35.9948 106.496 36.643 108.927 36.643C109.77 36.643 110.71 36.5457 111.747 36.3513C112.816 36.1244 113.821 35.7517 114.761 35.2331C115.442 34.8442 116.041 34.6821 116.56 34.7469C117.078 34.7794 117.484 34.9576 117.775 35.2817C118.099 35.6058 118.294 36.011 118.359 36.4971C118.424 36.9509 118.326 37.4208 118.067 37.907C117.84 38.3932 117.435 38.8145 116.852 39.171C115.717 39.884 114.405 40.4188 112.914 40.7753C111.455 41.0995 110.094 41.2615 108.83 41.2615Z" fill="url(#paint1_linear_949_3287)"/>
<path d="M72.8442 41.0184C72.1312 41.0184 71.5316 40.8239 71.0454 40.435C70.5917 40.0136 70.3486 39.4788 70.3162 38.8306C70.3162 38.1824 70.5917 37.5018 71.1426 36.7887L79.0185 27.0655V29.9339L71.6288 20.8426C71.0454 20.1296 70.7699 19.449 70.8023 18.8008C70.8347 18.1525 71.0778 17.634 71.5316 17.245C72.0177 16.8237 72.6173 16.613 73.3304 16.613C74.0758 16.613 74.6916 16.7427 75.1778 17.002C75.6964 17.2613 76.1663 17.6664 76.5877 18.2174L82.4216 25.7043H80.2825L86.165 18.2174C86.6188 17.6664 87.0887 17.2613 87.5749 17.002C88.0611 16.7427 88.6607 16.613 89.3737 16.613C90.1192 16.613 90.7188 16.8237 91.1725 17.245C91.6263 17.6664 91.8531 18.2012 91.8531 18.8494C91.8855 19.4976 91.61 20.1782 91.0267 20.8913L83.6856 29.8853V27.1627L91.5614 36.7887C92.1448 37.4694 92.4203 38.1338 92.3879 38.782C92.3555 39.4302 92.0962 39.965 91.61 40.3863C91.1563 40.8077 90.5567 41.0184 89.8112 41.0184C89.0982 41.0184 88.4986 40.8887 88.0125 40.6294C87.5263 40.3701 87.0563 39.965 86.6026 39.414L80.2825 31.441H82.3244L76.0529 39.414C75.6315 39.9326 75.1778 40.3377 74.6916 40.6294C74.2055 40.8887 73.5897 41.0184 72.8442 41.0184Z" fill="url(#paint2_linear_949_3287)"/>
<path d="M54.6384 41.2615C52.1752 41.2615 50.0361 40.7591 48.2211 39.7544C46.4061 38.7497 44.9962 37.3236 43.9915 35.4762C42.9867 33.5964 42.4844 31.3924 42.4844 28.8644C42.4844 26.9521 42.7599 25.2506 43.3109 23.7597C43.8942 22.2364 44.7207 20.9399 45.7903 19.8704C46.8598 18.7684 48.1401 17.9419 49.631 17.391C51.1219 16.8076 52.791 16.5159 54.6384 16.5159C57.1016 16.5159 59.2408 17.0182 61.0558 18.023C62.8708 19.0277 64.2806 20.4538 65.2854 22.3012C66.2901 24.1486 66.7925 26.3363 66.7925 28.8644C66.7925 30.7766 66.5008 32.4944 65.9174 34.0177C65.3664 35.541 64.5561 36.8536 63.4866 37.9556C62.417 39.0252 61.1368 39.8516 59.6459 40.435C58.155 40.986 56.4858 41.2615 54.6384 41.2615ZM54.6384 36.643C55.8376 36.643 56.891 36.3513 57.7985 35.7679C58.706 35.1845 59.4028 34.3256 59.889 33.1912C60.4075 32.0244 60.6668 30.5822 60.6668 28.8644C60.6668 26.2715 60.1158 24.3431 59.0139 23.0791C57.9119 21.7826 56.4534 21.1344 54.6384 21.1344C53.4392 21.1344 52.3859 21.4261 51.4784 22.0095C50.5709 22.5605 49.8578 23.4194 49.3393 24.5862C48.8531 25.7205 48.61 27.1466 48.61 28.8644C48.61 31.4248 49.161 33.3695 50.263 34.6983C51.3649 35.9948 52.8234 36.643 54.6384 36.643Z" fill="url(#paint3_linear_949_3287)"/>
<g filter="url(#filter0_n_949_3287)">
<path d="M5.27641 0.107378L12.3663 0.0288903C13.9632 0.0112129 15.4304 0.90534 16.1467 2.33262L21.5156 13.031L28.405 25.456L14.9097 30.2731L2.34172 4.89445C1.25741 2.70488 2.83321 0.134425 5.27641 0.107378Z" fill="url(#paint4_linear_949_3287)"/>
<path d="M5.27641 0.107378L12.3663 0.0288903C13.9632 0.0112129 15.4304 0.90534 16.1467 2.33262L21.5156 13.031L28.405 25.456L14.9097 30.2731L2.34172 4.89445C1.25741 2.70488 2.83321 0.134425 5.27641 0.107378Z" stroke="url(#paint5_linear_949_3287)" stroke-width="0.0663158"/>
</g>
<g filter="url(#filter1_n_949_3287)">
<path d="M43.5406 0.120398L34.6798 0.032498C33.0692 0.0165218 31.5952 0.923263 30.8894 2.371C29.1876 5.86217 25.963 12.4948 23.7043 17.2484C22.3969 19.9999 20.3222 24.2116 20.3222 24.2116C19.3937 26.3005 18.502 27.288 17.3083 27.7522C16.5788 28.117 14.195 28.806 13.2665 26.9492C13.6572 27.7306 14.8511 30.4784 16.5753 33.0316C18.176 35.088 20.3564 36.2222 21.2466 36.6458C23.1632 37.558 25.1872 38.7348 25.7229 39.5969C26.2032 40.3699 26.5452 40.7697 26.5868 41.4895C26.5952 41.6347 26.7063 41.7593 26.8515 41.7523C28.0873 41.6933 28.826 40.7757 29.5893 39.5969C30.2266 38.6127 41.5619 15.1134 46.4944 4.87171C47.5481 2.68394 45.9688 0.144485 43.5406 0.120398Z" fill="url(#paint6_linear_949_3287)"/>
<path d="M34.6794 0.0656543C34.6797 0.0435501 34.6799 0.0214459 34.6801 -0.000658252C36.6286 0.0186712 38.5772 0.0380007 40.5257 0.0573302C41.5308 0.0673006 42.5359 0.0772709 43.541 0.0872413C45.8823 0.00797006 47.6323 2.82153 46.5243 4.8861C41.4041 15.5038 36.2873 26.1531 31.0805 36.7426C30.6006 37.7024 30.1273 38.6948 29.6172 39.6149C28.9813 40.5992 28.1511 41.7511 26.8531 41.7855C26.6887 41.7963 26.5587 41.6426 26.5537 41.4914C26.5343 40.7805 26.0549 40.2111 25.6947 39.6144C24.5557 38.2322 22.8209 37.481 21.2323 36.6757C19.4409 35.8191 17.78 34.6263 16.5492 33.052C15.2517 31.1321 14.2158 29.0519 13.2369 26.964L13.2962 26.9344C13.9813 28.4324 15.9911 28.3423 17.2935 27.7226C18.8187 27.1511 19.6505 25.6188 20.2919 24.1981C21.4296 21.8831 22.5653 19.5624 23.6743 17.2342C25.8759 12.6074 28.1145 7.99569 30.3574 3.38722C30.5254 3.0423 30.6936 2.69702 30.8596 2.35647C31.5401 0.92278 33.0944 -0.0329128 34.6801 -0.000658252C34.6799 0.0214459 34.6797 0.0435501 34.6794 0.0656543C33.1186 0.0339275 31.589 0.974509 30.9192 2.38553C30.7532 2.72607 30.585 3.07134 30.417 3.41625C28.1742 8.02461 25.9356 12.6363 23.7342 17.2627C22.6249 19.5915 21.4892 21.9122 20.3519 24.2263C19.7092 25.6486 18.8718 27.2005 17.3203 27.7831C16.0044 28.4106 13.9487 28.5091 13.2369 26.964L13.2962 26.9344C14.2764 29.025 15.3095 31.0991 16.6028 33.013C17.824 34.5751 19.4771 35.763 21.2608 36.6159C22.8552 37.4267 24.5811 38.1617 25.751 39.5794C26.107 40.1709 26.5985 40.7517 26.6199 41.4876C26.6244 41.6106 26.728 41.7283 26.8499 41.7192C28.1089 41.6877 28.9257 40.5641 29.5615 39.5788C30.0648 38.6706 30.5422 37.6711 31.0211 36.7132C36.2274 26.1245 41.3444 15.4749 46.4645 4.85733C47.5508 2.83396 45.8351 0.0755103 43.5403 0.153554C42.5352 0.143583 41.5302 0.133613 40.5251 0.123643C38.5765 0.104313 36.628 0.0849837 34.6794 0.0656543ZM34.6801 -0.000658252L34.6794 0.0656543L34.6801 -0.000658252Z" fill="url(#paint7_linear_949_3287)"/>
</g>
<g filter="url(#filter2_n_949_3287)">
<path d="M40.8629 8.04689L38.6856 8.66639C38.2354 8.75913 37.8835 9.10389 37.7915 9.54743L37.1639 11.69C37.0718 12.1961 36.3373 12.1961 36.2453 11.69L35.5847 9.66743C35.4885 9.22791 35.1387 8.88718 34.6927 8.79646L32.5482 8.04689C32.0347 7.95616 32.0347 7.23237 32.5482 7.14165L34.5937 6.48766C35.0356 6.3929 35.3793 6.05419 35.4755 5.61871L36.2473 3.49648C36.3394 2.99043 37.0739 2.99043 37.1659 3.49648L37.8276 5.64219C37.9196 6.0817 38.2675 6.42646 38.7114 6.52122L40.865 7.14165C41.3765 7.23036 41.3765 7.95616 40.8629 8.04689Z" fill="url(#paint8_radial_949_3287)"/>
<path d="M36.2803 3.50269C36.3657 3.03319 37.0467 3.03273 37.1328 3.50171V3.50269L37.1338 3.50659L37.7949 5.64819V5.64917C37.8896 6.1009 38.2468 6.4543 38.7021 6.55249V6.55347L40.8555 7.17358L40.8594 7.17456C41.3334 7.25686 41.3348 7.92986 40.8574 8.0144L40.8535 8.01538L38.6787 8.63354C38.217 8.7287 37.8555 9.08238 37.7598 9.53784L37.1318 11.6804L37.1309 11.6843C37.0452 12.1537 36.364 12.1537 36.2783 11.6843L36.2764 11.6794L35.6162 9.65698C35.5165 9.20764 35.1592 8.85993 34.7041 8.76538L32.5596 8.01538L32.5537 8.0144L32.4697 7.99194C32.105 7.85786 32.1051 7.33121 32.4697 7.19702L32.5537 7.17456L32.5586 7.17358L34.6006 6.52026C35.0537 6.42311 35.4067 6.07618 35.5068 5.62964L36.2783 3.50757H36.2793L36.2803 3.50269Z" stroke="url(#paint9_linear_949_3287)" stroke-width="0.0663158"/>
</g>
<defs>
<filter id="filter0_n_949_3287" x="1.95996" y="-0.00463867" width="26.4929" height="30.3188" filterUnits="userSpaceOnUse" color-interpolation-filters="sRGB">
<feFlood flood-opacity="0" result="BackgroundImageFix"/>
<feBlend mode="normal" in="SourceGraphic" in2="BackgroundImageFix" result="shape"/>
<feTurbulence type="fractalNoise" baseFrequency="75.3968505859375 75.3968505859375" stitchTiles="stitch" numOctaves="3" result="noise" seed="3708" />
<feColorMatrix in="noise" type="luminanceToAlpha" result="alphaNoise" />
<feComponentTransfer in="alphaNoise" result="coloredNoise1">
<feFuncA type="discrete" tableValues="1 1 1 1 1 1 1 1 1 1 1 1 1 1 1 1 1 1 1 1 1 1 1 1 1 1 1 1 1 1 1 1 1 1 1 1 1 1 1 1 1 1 1 1 1 1 1 1 1 1 1 0 0 0 0 0 0 0 0 0 0 0 0 0 0 0 0 0 0 0 0 0 0 0 0 0 0 0 0 0 0 0 0 0 0 0 0 0 0 0 0 0 0 0 0 0 0 0 0 0 "/>
</feComponentTransfer>
<feComposite operator="in" in2="shape" in="coloredNoise1" result="noise1Clipped" />
<feFlood flood-color="rgba(0, 0, 0, 0.25)" result="color1Flood" />
<feComposite operator="in" in2="noise1Clipped" in="color1Flood" result="color1" />
<feMerge result="effect1_noise_949_3287">
<feMergeNode in="shape" />
<feMergeNode in="color1" />
</feMerge>
</filter>
<filter id="filter1_n_949_3287" x="13.2368" y="-0.00146484" width="33.6284" height="41.7874" filterUnits="userSpaceOnUse" color-interpolation-filters="sRGB">
<feFlood flood-opacity="0" result="BackgroundImageFix"/>
<feBlend mode="normal" in="SourceGraphic" in2="BackgroundImageFix" result="shape"/>
<feTurbulence type="fractalNoise" baseFrequency="75.3968505859375 75.3968505859375" stitchTiles="stitch" numOctaves="3" result="noise" seed="3708" />
<feColorMatrix in="noise" type="luminanceToAlpha" result="alphaNoise" />
<feComponentTransfer in="alphaNoise" result="coloredNoise1">
<feFuncA type="discrete" tableValues="1 1 1 1 1 1 1 1 1 1 1 1 1 1 1 1 1 1 1 1 1 1 1 1 1 1 1 1 1 1 1 1 1 1 1 1 1 1 1 1 1 1 1 1 1 1 1 1 1 1 1 0 0 0 0 0 0 0 0 0 0 0 0 0 0 0 0 0 0 0 0 0 0 0 0 0 0 0 0 0 0 0 0 0 0 0 0 0 0 0 0 0 0 0 0 0 0 0 0 0 "/>
</feComponentTransfer>
<feComposite operator="in" in2="shape" in="coloredNoise1" result="noise1Clipped" />
<feFlood flood-color="rgba(0, 0, 0, 0.25)" result="color1Flood" />
<feComposite operator="in" in2="noise1Clipped" in="color1Flood" result="color1" />
<feMerge result="effect1_noise_949_3287">
<feMergeNode in="shape" />
<feMergeNode in="color1" />
</feMerge>
</filter>
<filter id="filter2_n_949_3287" x="32.1631" y="3.11694" width="9.08521" height="8.95264" filterUnits="userSpaceOnUse" color-interpolation-filters="sRGB">
<feFlood flood-opacity="0" result="BackgroundImageFix"/>
<feBlend mode="normal" in="SourceGraphic" in2="BackgroundImageFix" result="shape"/>
<feTurbulence type="fractalNoise" baseFrequency="75.3968505859375 75.3968505859375" stitchTiles="stitch" numOctaves="3" result="noise" seed="3708" />
<feColorMatrix in="noise" type="luminanceToAlpha" result="alphaNoise" />
<feComponentTransfer in="alphaNoise" result="coloredNoise1">
<feFuncA type="discrete" tableValues="1 1 1 1 1 1 1 1 1 1 1 1 1 1 1 1 1 1 1 1 1 1 1 1 1 1 1 1 1 1 1 1 1 1 1 1 1 1 1 1 1 1 1 1 1 1 1 1 1 1 1 0 0 0 0 0 0 0 0 0 0 0 0 0 0 0 0 0 0 0 0 0 0 0 0 0 0 0 0 0 0 0 0 0 0 0 0 0 0 0 0 0 0 0 0 0 0 0 0 0 "/>
</feComponentTransfer>
<feComposite operator="in" in2="shape" in="coloredNoise1" result="noise1Clipped" />
<feFlood flood-color="rgba(0, 0, 0, 0.25)" result="color1Flood" />
<feComposite operator="in" in2="noise1Clipped" in="color1Flood" result="color1" />
<feMerge result="effect1_noise_949_3287">
<feMergeNode in="shape" />
<feMergeNode in="color1" />
</feMerge>
</filter>
<linearGradient id="paint0_linear_949_3287" x1="128.539" y1="-1.2353" x2="63.7873" y2="57.1568" gradientUnits="userSpaceOnUse">
<stop stop-color="#1E293F"/>
<stop offset="0.470837" stop-color="#1B253B"/>
<stop offset="1" stop-color="#1D273D"/>
</linearGradient>
<linearGradient id="paint1_linear_949_3287" x1="128.539" y1="-1.2353" x2="63.7873" y2="57.1568" gradientUnits="userSpaceOnUse">
<stop stop-color="#1E293F"/>
<stop offset="0.470837" stop-color="#1B253B"/>
<stop offset="1" stop-color="#1D273D"/>
</linearGradient>
<linearGradient id="paint2_linear_949_3287" x1="128.539" y1="-1.23537" x2="63.7874" y2="57.1568" gradientUnits="userSpaceOnUse">
<stop stop-color="#1E293F"/>
<stop offset="0.470837" stop-color="#1B253B"/>
<stop offset="1" stop-color="#1D273D"/>
</linearGradient>
<linearGradient id="paint3_linear_949_3287" x1="128.539" y1="-1.2353" x2="63.7872" y2="57.1568" gradientUnits="userSpaceOnUse">
<stop stop-color="#1E293F"/>
<stop offset="0.470837" stop-color="#1B253B"/>
<stop offset="1" stop-color="#1D273D"/>
</linearGradient>
<linearGradient id="paint4_linear_949_3287" x1="5.83579" y1="-6.09764e-07" x2="20.6242" y2="30.3063" gradientUnits="userSpaceOnUse">
<stop stop-color="#23304A"/>
<stop offset="1" stop-color="#131D37"/>
</linearGradient>
<linearGradient id="paint5_linear_949_3287" x1="12.6" y1="-0.563684" x2="13.3626" y2="26.9574" gradientUnits="userSpaceOnUse">
<stop stop-color="#0E122C"/>
<stop offset="1" stop-color="#485572"/>
</linearGradient>
<linearGradient id="paint6_linear_949_3287" x1="42.8067" y1="-1.59248" x2="26.3936" y2="41.778" gradientUnits="userSpaceOnUse">
<stop offset="0.0411952" stop-color="#25324C"/>
<stop offset="0.468498" stop-color="#1D2942"/>
<stop offset="1" stop-color="#25304B"/>
<stop offset="1" stop-color="#26314B"/>
<stop offset="1" stop-color="#26314A"/>
<stop offset="1" stop-color="#202E48"/>
<stop offset="1" stop-color="#1B253D"/>
<stop offset="1" stop-color="#212B44"/>
</linearGradient>
<linearGradient id="paint7_linear_949_3287" x1="43.8678" y1="0.430146" x2="20.6572" y2="37.1691" gradientUnits="userSpaceOnUse">
<stop stop-color="#232F48"/>
<stop offset="1" stop-color="#232E47"/>
<stop offset="1" stop-color="#222D45"/>
<stop offset="1" stop-color="#515F7E"/>
</linearGradient>
<radialGradient id="paint8_radial_949_3287" cx="0" cy="0" r="1" gradientUnits="userSpaceOnUse" gradientTransform="translate(36.7057 7.59326) rotate(90) scale(4.47632 4.54263)">
<stop stop-color="#161F35"/>
<stop offset="1" stop-color="#141E34"/>
</radialGradient>
<linearGradient id="paint9_linear_949_3287" x1="36.7057" y1="3.11694" x2="36.7057" y2="12.0696" gradientUnits="userSpaceOnUse">
<stop stop-color="#05091A"/>
<stop offset="0.840529" stop-color="#546586"/>
<stop offset="1" stop-color="#4A5A74"/>
</linearGradient>
</defs>
</svg>
