<svg width="202" height="82" viewBox="0 0 202 82" fill="none" xmlns="http://www.w3.org/2000/svg">
<g filter="url(#filter0_d_950_2498)">
<rect x="7" y="9" width="176" height="56" rx="14" fill="#040306"/>
<path d="M65.884 25.476H68.848V29.676C68.384 29.828 67.916 29.94 67.444 30.012C66.972 30.084 66.436 30.12 65.836 30.12C64.948 30.12 64.2 29.944 63.592 29.592C62.984 29.232 62.52 28.724 62.2 28.068C61.888 27.404 61.732 26.62 61.732 25.716C61.732 24.82 61.908 24.044 62.26 23.388C62.612 22.732 63.116 22.224 63.772 21.864C64.436 21.496 65.236 21.312 66.172 21.312C66.652 21.312 67.104 21.356 67.528 21.444C67.96 21.532 68.36 21.656 68.728 21.816L68.32 22.752C68.016 22.616 67.672 22.5 67.288 22.404C66.912 22.308 66.52 22.26 66.112 22.26C65.432 22.26 64.848 22.4 64.36 22.68C63.872 22.96 63.5 23.36 63.244 23.88C62.988 24.392 62.86 25.004 62.86 25.716C62.86 26.396 62.968 27 63.184 27.528C63.408 28.048 63.756 28.456 64.228 28.752C64.7 29.04 65.32 29.184 66.088 29.184C66.344 29.184 66.568 29.176 66.76 29.16C66.96 29.136 67.14 29.108 67.3 29.076C67.468 29.044 67.624 29.012 67.768 28.98V26.436H65.884V25.476ZM75.6825 30H70.8945V21.432H75.6825V22.38H71.9745V25.056H75.4665V25.992H71.9745V29.052H75.6825V30ZM80.2744 30H79.1944V22.38H76.5184V21.432H82.9384V22.38H80.2744V30ZM89.7596 30H86.6636V29.376L87.6716 29.148V22.296L86.6636 22.056V21.432H89.7596V22.056L88.7516 22.296V29.148L89.7596 29.376V30ZM94.126 30H93.046V22.38H90.37V21.432H96.79V22.38H94.126V30ZM108.675 25.704C108.675 26.368 108.591 26.972 108.423 27.516C108.255 28.052 108.003 28.516 107.667 28.908C107.339 29.3 106.927 29.6 106.431 29.808C105.943 30.016 105.375 30.12 104.727 30.12C104.055 30.12 103.471 30.016 102.975 29.808C102.479 29.592 102.067 29.292 101.739 28.908C101.411 28.516 101.167 28.048 101.007 27.504C100.847 26.96 100.767 26.356 100.767 25.692C100.767 24.812 100.911 24.044 101.199 23.388C101.487 22.732 101.923 22.22 102.507 21.852C103.099 21.484 103.843 21.3 104.739 21.3C105.595 21.3 106.315 21.484 106.899 21.852C107.483 22.212 107.923 22.724 108.219 23.388C108.523 24.044 108.675 24.816 108.675 25.704ZM101.907 25.704C101.907 26.424 102.007 27.044 102.207 27.564C102.407 28.084 102.715 28.484 103.131 28.764C103.555 29.044 104.087 29.184 104.727 29.184C105.375 29.184 105.903 29.044 106.311 28.764C106.727 28.484 107.035 28.084 107.235 27.564C107.435 27.044 107.535 26.424 107.535 25.704C107.535 24.624 107.311 23.78 106.863 23.172C106.415 22.556 105.707 22.248 104.739 22.248C104.091 22.248 103.555 22.388 103.131 22.668C102.715 22.94 102.407 23.336 102.207 23.856C102.007 24.368 101.907 24.984 101.907 25.704ZM117.366 30H116.106L111.522 22.884H111.474C111.482 23.028 111.49 23.188 111.498 23.364C111.514 23.54 111.526 23.732 111.534 23.94C111.542 24.14 111.55 24.348 111.558 24.564C111.566 24.78 111.57 24.996 111.57 25.212V30H110.574V21.432H111.822L116.394 28.524H116.442C116.434 28.428 116.426 28.296 116.418 28.128C116.41 27.952 116.402 27.76 116.394 27.552C116.386 27.336 116.378 27.116 116.37 26.892C116.362 26.668 116.358 26.46 116.358 26.268V21.432H117.366V30Z" fill="white"/>
<path d="M68.1 42.16H73.32V49.42C72.6133 49.6733 71.86 49.8667 71.06 50C70.2733 50.1333 69.4067 50.2 68.46 50.2C67.1133 50.2 65.96 49.9133 65 49.34C64.0533 48.7667 63.3267 47.9333 62.82 46.84C62.3133 45.7467 62.06 44.4133 62.06 42.84C62.06 41.3467 62.3333 40.0533 62.88 38.96C63.4267 37.8667 64.22 37.02 65.26 36.42C66.3 35.82 67.5733 35.52 69.08 35.52C69.84 35.52 70.5667 35.6 71.26 35.76C71.9667 35.9067 72.6067 36.1133 73.18 36.38L72.28 38.48C71.8133 38.2533 71.3067 38.0667 70.76 37.92C70.2267 37.76 69.6533 37.68 69.04 37.68C68.1333 37.68 67.3667 37.8933 66.74 38.32C66.1267 38.7467 65.6533 39.3533 65.32 40.14C65 40.9133 64.84 41.8267 64.84 42.88C64.84 43.8933 64.98 44.7933 65.26 45.58C65.54 46.3533 65.96 46.96 66.52 47.4C67.0933 47.8267 67.8333 48.04 68.74 48.04C69.02 48.04 69.28 48.0267 69.52 48C69.76 47.9733 69.98 47.94 70.18 47.9C70.3933 47.86 70.58 47.82 70.74 47.78V44.34H68.1V42.16ZM85.4709 44.56C85.4709 45.4667 85.3576 46.2667 85.1309 46.96C84.9043 47.6533 84.5709 48.2467 84.1309 48.74C83.7043 49.22 83.1843 49.5867 82.5709 49.84C81.9576 50.08 81.2709 50.2 80.5109 50.2C79.8043 50.2 79.1443 50.08 78.5309 49.84C77.9309 49.5867 77.4109 49.22 76.9709 48.74C76.5443 48.2467 76.2109 47.6533 75.9709 46.96C75.7309 46.2667 75.6109 45.4667 75.6109 44.56C75.6109 43.36 75.8043 42.3467 76.1909 41.52C76.5909 40.68 77.1643 40.0467 77.9109 39.62C78.6576 39.18 79.5443 38.96 80.5709 38.96C81.5309 38.96 82.3776 39.18 83.1109 39.62C83.8443 40.0467 84.4176 40.68 84.8309 41.52C85.2576 42.3467 85.4709 43.36 85.4709 44.56ZM78.3109 44.56C78.3109 45.32 78.3909 45.9733 78.5509 46.52C78.7109 47.0533 78.9509 47.46 79.2709 47.74C79.6043 48.02 80.0309 48.16 80.5509 48.16C81.0709 48.16 81.4909 48.02 81.8109 47.74C82.1443 47.46 82.3843 47.0533 82.5309 46.52C82.6909 45.9733 82.7709 45.32 82.7709 44.56C82.7709 43.7867 82.6909 43.14 82.5309 42.62C82.3709 42.0867 82.1243 41.6867 81.7909 41.42C81.4709 41.14 81.0509 41 80.5309 41C79.7443 41 79.1776 41.3067 78.8309 41.92C78.4843 42.5333 78.3109 43.4133 78.3109 44.56ZM97.1116 44.56C97.1116 45.4667 96.9982 46.2667 96.7716 46.96C96.5449 47.6533 96.2116 48.2467 95.7716 48.74C95.3449 49.22 94.8249 49.5867 94.2116 49.84C93.5982 50.08 92.9116 50.2 92.1516 50.2C91.4449 50.2 90.7849 50.08 90.1716 49.84C89.5716 49.5867 89.0516 49.22 88.6116 48.74C88.1849 48.2467 87.8516 47.6533 87.6116 46.96C87.3716 46.2667 87.2516 45.4667 87.2516 44.56C87.2516 43.36 87.4449 42.3467 87.8316 41.52C88.2316 40.68 88.8049 40.0467 89.5516 39.62C90.2982 39.18 91.1849 38.96 92.2116 38.96C93.1716 38.96 94.0182 39.18 94.7516 39.62C95.4849 40.0467 96.0582 40.68 96.4716 41.52C96.8982 42.3467 97.1116 43.36 97.1116 44.56ZM89.9516 44.56C89.9516 45.32 90.0316 45.9733 90.1916 46.52C90.3516 47.0533 90.5916 47.46 90.9116 47.74C91.2449 48.02 91.6716 48.16 92.1916 48.16C92.7116 48.16 93.1316 48.02 93.4516 47.74C93.7849 47.46 94.0249 47.0533 94.1716 46.52C94.3316 45.9733 94.4116 45.32 94.4116 44.56C94.4116 43.7867 94.3316 43.14 94.1716 42.62C94.0116 42.0867 93.7649 41.6867 93.4316 41.42C93.1116 41.14 92.6916 41 92.1716 41C91.3849 41 90.8182 41.3067 90.4716 41.92C90.1249 42.5333 89.9516 43.4133 89.9516 44.56ZM102.852 38.96C103.519 38.96 104.099 39.0933 104.592 39.36C105.086 39.6267 105.499 40.0267 105.832 40.56H105.912L106.152 39.16H108.392V50.08C108.392 51.1067 108.206 51.9667 107.832 52.66C107.459 53.3667 106.899 53.9 106.152 54.26C105.419 54.62 104.486 54.8 103.352 54.8C102.592 54.8 101.899 54.7467 101.272 54.64C100.659 54.5467 100.072 54.38 99.5122 54.14V52.06C99.8989 52.2333 100.292 52.38 100.692 52.5C101.106 52.6333 101.532 52.7333 101.972 52.8C102.412 52.8667 102.879 52.9 103.372 52.9C104.146 52.9 104.732 52.6667 105.132 52.2C105.546 51.7333 105.752 51.0667 105.752 50.2V49.92C105.752 49.72 105.759 49.4867 105.772 49.22C105.799 48.9533 105.819 48.74 105.832 48.58H105.752C105.432 49.14 105.032 49.5533 104.552 49.82C104.072 50.0733 103.492 50.2 102.812 50.2C101.599 50.2 100.639 49.7067 99.9322 48.72C99.2389 47.7333 98.8922 46.36 98.8922 44.6C98.8922 43.4133 99.0522 42.4 99.3722 41.56C99.6922 40.72 100.146 40.08 100.732 39.64C101.332 39.1867 102.039 38.96 102.852 38.96ZM103.652 41.02C103.199 41.02 102.819 41.16 102.512 41.44C102.219 41.7067 101.992 42.1067 101.832 42.64C101.672 43.1733 101.592 43.84 101.592 44.64C101.592 45.8133 101.766 46.7 102.112 47.3C102.459 47.9 102.979 48.2 103.672 48.2C104.072 48.2 104.412 48.1467 104.692 48.04C104.972 47.92 105.199 47.7333 105.372 47.48C105.546 47.2133 105.679 46.88 105.772 46.48C105.866 46.0667 105.912 45.5733 105.912 45V44.62C105.912 43.7533 105.832 43.06 105.672 42.54C105.526 42.0067 105.286 41.62 104.952 41.38C104.619 41.14 104.186 41.02 103.652 41.02ZM113.928 50H111.268V34.8H113.928V50ZM121.075 38.96C122.008 38.96 122.808 39.16 123.475 39.56C124.155 39.9467 124.682 40.5067 125.055 41.24C125.428 41.96 125.615 42.84 125.615 43.88V45.16H118.975C119.002 46.1467 119.242 46.9133 119.695 47.46C120.162 47.9933 120.815 48.26 121.655 48.26C122.322 48.26 122.915 48.1933 123.435 48.06C123.955 47.9133 124.495 47.7067 125.055 47.44V49.46C124.548 49.7133 124.022 49.9 123.475 50.02C122.928 50.14 122.255 50.2 121.455 50.2C120.442 50.2 119.542 50 118.755 49.6C117.982 49.1867 117.375 48.5667 116.935 47.74C116.495 46.9133 116.275 45.8867 116.275 44.66C116.275 43.42 116.475 42.38 116.875 41.54C117.275 40.6867 117.835 40.0467 118.555 39.62C119.288 39.18 120.128 38.96 121.075 38.96ZM121.115 40.82C120.515 40.82 120.028 41.04 119.655 41.48C119.295 41.9067 119.082 42.5467 119.015 43.4H123.095C123.095 42.8933 123.022 42.4467 122.875 42.06C122.728 41.6733 122.508 41.3733 122.215 41.16C121.935 40.9333 121.568 40.82 121.115 40.82ZM137.132 35.72C138.865 35.72 140.139 36.1067 140.952 36.88C141.765 37.6533 142.172 38.72 142.172 40.08C142.172 40.6933 142.085 41.28 141.912 41.84C141.739 42.3867 141.445 42.88 141.032 43.32C140.632 43.76 140.099 44.1067 139.432 44.36C138.765 44.6133 137.945 44.74 136.972 44.74H135.692V50H133.012V35.72H137.132ZM137.032 37.84H135.692V42.62H136.692C137.279 42.62 137.779 42.54 138.192 42.38C138.605 42.2067 138.919 41.94 139.132 41.58C139.359 41.22 139.472 40.7533 139.472 40.18C139.472 39.3933 139.272 38.8067 138.872 38.42C138.472 38.0333 137.859 37.84 137.032 37.84ZM147.131 50H144.471V34.8H147.131V50ZM154.358 38.96C155.665 38.96 156.665 39.2667 157.358 39.88C158.051 40.48 158.398 41.4267 158.398 42.72V50H156.538L156.018 48.5H155.938C155.645 48.8867 155.345 49.2133 155.038 49.48C154.731 49.7333 154.378 49.9133 153.978 50.02C153.578 50.14 153.098 50.2 152.538 50.2C151.938 50.2 151.398 50.08 150.918 49.84C150.438 49.6 150.058 49.2333 149.778 48.74C149.498 48.2333 149.358 47.6 149.358 46.84C149.358 45.72 149.745 44.88 150.518 44.32C151.291 43.7467 152.451 43.4333 153.998 43.38L155.738 43.32V42.78C155.738 42.0867 155.591 41.5933 155.298 41.3C155.005 41.0067 154.605 40.86 154.098 40.86C153.618 40.86 153.131 40.94 152.638 41.1C152.158 41.26 151.685 41.4467 151.218 41.66L150.398 39.9C150.945 39.62 151.551 39.3933 152.218 39.22C152.885 39.0467 153.598 38.96 154.358 38.96ZM154.618 44.92C153.671 44.96 153.011 45.1533 152.638 45.5C152.265 45.8333 152.078 46.2867 152.078 46.86C152.078 47.3667 152.205 47.7333 152.458 47.96C152.725 48.1867 153.071 48.3 153.498 48.3C154.125 48.3 154.658 48.0933 155.098 47.68C155.538 47.2533 155.758 46.6267 155.758 45.8V44.88L154.618 44.92ZM159.77 39.16H162.61L164.55 45.28C164.643 45.5333 164.716 45.7867 164.77 46.04C164.836 46.2933 164.89 46.5467 164.93 46.8C164.983 47.0533 165.023 47.3067 165.05 47.56H165.11C165.163 47.2267 165.23 46.86 165.31 46.46C165.403 46.06 165.51 45.6667 165.63 45.28L167.53 39.16H170.33L166.03 51.42C165.776 52.14 165.456 52.7533 165.07 53.26C164.696 53.7667 164.236 54.1467 163.69 54.4C163.156 54.6667 162.516 54.8 161.77 54.8C161.463 54.8 161.19 54.78 160.95 54.74C160.723 54.7133 160.523 54.68 160.35 54.64V52.64C160.483 52.6667 160.65 52.6933 160.85 52.72C161.05 52.7467 161.256 52.76 161.47 52.76C161.856 52.76 162.183 52.6733 162.45 52.5C162.73 52.34 162.963 52.1133 163.15 51.82C163.336 51.54 163.476 51.2133 163.57 50.84L163.85 49.96L159.77 39.16Z" fill="white"/>
<path d="M33.611 36.5149L19.0666 51.0297C19.0222 50.7913 18.9992 50.543 19 50.2865L19.0025 36.55L19.0332 22.8136C19.0341 22.566 19.0573 22.3263 19.101 22.0959L33.611 36.5149Z" fill="#4285F4"/>
<path d="M41.1135 29.0279L33.6111 36.5151L19.1011 22.0962C19.5752 19.5885 22.4465 18.1695 24.7747 19.5237L36.6485 26.4307L41.1135 29.0279Z" fill="#34A853"/>
<path d="M48.5008 39.9547L41.2522 44.1083L33.6111 36.515L41.1135 29.0278L48.5223 33.3374C51.0645 34.8162 51.0526 38.4925 48.5008 39.9547Z" fill="#FCBC03"/>
<path d="M41.252 44.1085L36.5821 46.7844L24.6638 53.614C22.3346 54.9487 19.5306 53.5251 19.0664 51.03L33.6109 36.5151L41.252 44.1085Z" fill="#DB4437"/>
</g>
<defs>
<filter id="filter0_d_950_2498" x="0.3" y="0.3" width="201.4" height="81.4" filterUnits="userSpaceOnUse" color-interpolation-filters="sRGB">
<feFlood flood-opacity="0" result="BackgroundImageFix"/>
<feColorMatrix in="SourceAlpha" type="matrix" values="0 0 0 0 0 0 0 0 0 0 0 0 0 0 0 0 0 0 127 0" result="hardAlpha"/>
<feOffset dx="6" dy="4"/>
<feGaussianBlur stdDeviation="6.35"/>
<feComposite in2="hardAlpha" operator="out"/>
<feColorMatrix type="matrix" values="0 0 0 0 0 0 0 0 0 0 0 0 0 0 0 0 0 0 0.25 0"/>
<feBlend mode="normal" in2="BackgroundImageFix" result="effect1_dropShadow_950_2498"/>
<feBlend mode="normal" in="SourceGraphic" in2="effect1_dropShadow_950_2498" result="shape"/>
</filter>
</defs>
</svg>
